<svg xmlns="http://www.w3.org/2000/svg" data-name="Layer 1" viewBox="0 0 128 128"><path fill="#85caf6" d="M64.747,51.73a1,1,0,0,1,.037-1.02L84.543,20h-27L40.373,61.4H59.625a1,1,0,0,1,.966,1.259l-11.1,41.39,37.673-51.8H65.625A1,1,0,0,1,64.747,51.73Z"/><path fill="#255d8b" d="M90.462,50.569a1.5,1.5,0,0,0-1.337-.819H68.374L87.636,19.812A1.5,1.5,0,0,0,86.375,17.5h-29.5a1.5,1.5,0,0,0-1.386.926l-18,43.4A1.5,1.5,0,0,0,38.875,63.9H57.669L45.676,108.611a1.5,1.5,0,0,0,2.662,1.27l42-57.75A1.5,1.5,0,0,0,90.462,50.569ZM50.669,101.576l10.4-38.785A1.5,1.5,0,0,0,59.625,60.9h-18.5L57.877,20.5H83.627L64.364,50.439a1.5,1.5,0,0,0,1.261,2.312H86.179Z"/></svg>